TITLE ""
FILE "DISC2Track03.mp3" MP3
  TRACK 01 AUDIO
    TITLE "DISC2Track03_01"
    INDEX 01 00:00:00
  TRACK 02 AUDIO
    TITLE "DISC2Track03_02"
    INDEX 01 00:01:45
  TRACK 03 AUDIO
    TITLE "DISC2Track03_03"
    INDEX 01 00:01:61
  TRACK 04 AUDIO
    TITLE "DISC2Track03_04"
    INDEX 01 00:06:21
  TRACK 05 AUDIO
    TITLE "DISC2Track03_05"
    INDEX 01 00:11:14
  TRACK 06 AUDIO
    TITLE "DISC2Track03_06"
    INDEX 01 00:15:41
  TRACK 07 AUDIO
    TITLE "DISC2Track03_07"
    INDEX 01 00:15:65
  TRACK 08 AUDIO
    TITLE "DISC2Track03_08"
    INDEX 01 00:19:12
  TRACK 09 AUDIO
    TITLE "DISC2Track03_09"
    INDEX 01 00:22:16
  TRACK 10 AUDIO
    TITLE "DISC2Track03_10"
    INDEX 01 00:24:72
  TRACK 11 AUDIO
    TITLE "DISC2Track03_11"
    INDEX 01 00:25:12
  TRACK 12 AUDIO
    TITLE "DISC2Track03_12"
    INDEX 01 00:27:37
  TRACK 13 AUDIO
    TITLE "DISC2Track03_13"
    INDEX 01 00:30:11
  TRACK 14 AUDIO
    TITLE "DISC2Track03_14"
    INDEX 01 00:32:40
  TRACK 15 AUDIO
    TITLE "DISC2Track03_15"
    INDEX 01 00:32:51
  TRACK 16 AUDIO
    TITLE "DISC2Track03_16"
    INDEX 01 00:35:73
  TRACK 17 AUDIO
    TITLE "DISC2Track03_17"
    INDEX 01 00:38:72
  TRACK 18 AUDIO
    TITLE "DISC2Track03_18"
    INDEX 01 00:41:39
  TRACK 19 AUDIO
    TITLE "DISC2Track03_19"
    INDEX 01 00:41:46
  TRACK 20 AUDIO
    TITLE "DISC2Track03_20"
    INDEX 01 00:45:44
  TRACK 21 AUDIO
    TITLE "DISC2Track03_21"
    INDEX 01 00:48:49
  TRACK 22 AUDIO
    TITLE "DISC2Track03_22"
    INDEX 01 00:51:21
  TRACK 23 AUDIO
    TITLE "DISC2Track03_23"
    INDEX 01 00:51:39
  TRACK 24 AUDIO
    TITLE "DISC2Track03_24"
    INDEX 01 00:54:08
  TRACK 25 AUDIO
    TITLE "DISC2Track03_25"
    INDEX 01 00:56:42
  TRACK 26 AUDIO
    TITLE "DISC2Track03_26"
    INDEX 01 00:58:41
  TRACK 27 AUDIO
    TITLE "DISC2Track03_27"
    INDEX 01 00:58:57
  TRACK 28 AUDIO
    TITLE "DISC2Track03_28"
    INDEX 01 01:03:42
  TRACK 29 AUDIO
    TITLE "DISC2Track03_29"
    INDEX 01 01:07:30
  TRACK 30 AUDIO
    TITLE "DISC2Track03_30"
    INDEX 01 01:10:66
  TRACK 31 AUDIO
    TITLE "DISC2Track03_31"
    INDEX 01 01:11:06
  TRACK 32 AUDIO
    TITLE "DISC2Track03_32"
    INDEX 01 01:15:06
  TRACK 33 AUDIO
    TITLE "DISC2Track03_33"
    INDEX 01 01:18:38
  TRACK 34 AUDIO
    TITLE "DISC2Track03_34"
    INDEX 01 01:21:34
  TRACK 35 AUDIO
    TITLE "DISC2Track03_35"
    INDEX 01 01:21:54
  TRACK 36 AUDIO
    TITLE "DISC2Track03_36"
    INDEX 01 01:24:37
  TRACK 37 AUDIO
    TITLE "DISC2Track03_37"
    INDEX 01 01:27:09
  TRACK 38 AUDIO
    TITLE "DISC2Track03_38"
    INDEX 01 01:29:24
  TRACK 39 AUDIO
    TITLE "DISC2Track03_39"
    INDEX 01 01:29:40
  TRACK 40 AUDIO
    TITLE "DISC2Track03_40"
    INDEX 01 01:33:24
  TRACK 41 AUDIO
    TITLE "DISC2Track03_41"
    INDEX 01 01:38:01
  TRACK 42 AUDIO
    TITLE "DISC2Track03_42"
    INDEX 01 01:42:25
